<?xml version="1.0" standalone="no"?><!DOCTYPE svg PUBLIC "-//W3C//DTD SVG 1.1//EN" "http://www.w3.org/Graphics/SVG/1.1/DTD/svg11.dtd"><svg t="1771917577452" class="icon" viewBox="0 0 1427 1024" version="1.1" xmlns="http://www.w3.org/2000/svg" p-id="14259" xmlns:xlink="http://www.w3.org/1999/xlink" width="278.7109375" height="200"><path d="M1105.663907 437.111798v-87.655072c0-63.99596-51.843192-115.709867-115.709867-115.709867h-87.655072l-61.927404-61.927403c-45.249669-45.249669-118.424847-45.249669-163.674515 0l-61.927404 61.927403h-87.655072c-63.99596 0-115.709867 51.843192-115.709867 115.709867v87.655072l-62.056688 61.927404c-45.249669 45.249669-45.249669 118.424847 0 163.674516l61.927403 62.056688v87.655072c0 63.99596 51.843192 115.709867 115.709867 115.709867h87.655072l61.927404 61.927404c45.249669 45.249669 118.424847 45.249669 163.674515 0l61.927404-61.927404h87.655072c63.99596 0 115.709867-51.843192 115.709867-115.709867v-87.655072l61.927404-61.927404c45.249669-45.249669 45.249669-118.424847 0-163.674515l-61.798119-62.056689z m-147.772489 67.22808c-5.559245 0-11.506344-3.619973-11.506345-11.506345 0-5.559245 5.559245-11.506344 13.445616-11.506344 5.947099 0 11.506344 5.559245 9.567073 9.567073 1.939272 7.498517-3.619973 13.445616-11.506344 13.445616z m-80.80298-108.082066c0-5.559245 3.619973-7.498517 9.567073-9.567073 3.619973-1.939272 7.627801-1.939272 11.506344-3.878543 5.559245 0 9.567073-3.619973 13.445616-9.567073 1.939272-5.559245 1.939272-9.567073 3.878543-13.445615 1.680702-3.878543 3.619973-7.886371 9.567073-7.886371 5.559245 0 7.627801 1.939272 9.567073 7.886371 1.939272 3.878543 1.939272 9.567073 3.878543 13.445615 0 5.559245 3.619973 7.627801 9.567072 9.567073 3.878543 1.939272 9.567073 3.878543 13.445616 3.878543 3.878543 1.680702 7.886371 3.619973 7.886371 9.567073-1.939272 3.619973-3.878543 7.498517-7.886371 9.567073-3.878543 1.939272-9.567073 3.878543-15.384887 5.947099-5.559245 1.680702-7.627801 3.619973-9.567073 9.567073 0 5.947099-1.939272 9.567073-3.878543 15.384887-1.680702 3.878543-5.559245 7.886371-9.567073 7.886371-5.559245 0-7.498517-3.878543-9.567073-7.886371-1.939272-5.947099-2.327126-9.825642-3.878543-15.384887-1.680702-5.559245-3.619973-7.498517-9.567072-9.567073-3.878543-1.939272-9.567073-1.939272-13.445616-3.878543-5.947099-2.068556-9.954927-4.007828-9.567073-11.635629z m45.896092 125.147655c-17.453444 7.886371-32.838331 15.384887-50.291774 21.331986-7.627801 3.878543-15.384887-1.680702-15.384887-9.567072 0-5.559245 3.878543-9.567073 7.88637-11.506345 15.384887-7.886371 30.899059-15.384887 48.223219-21.331986 7.498517-3.619973 13.445616 0 15.384887 5.559245 3.749258 5.947099 2.068556 11.506344-5.817815 15.514172z m-92.567893-171.431602c5.559245 0 11.506344 5.559245 11.506344 11.506345 0 7.498517-5.559245 13.445616-13.445615 13.445615-7.498517 0-11.506344-5.947099-11.506345-11.506344 0-7.498517 5.559245-13.445616 13.445616-13.445616z m-50.550344 100.454265c5.947099-17.453444 13.445616-34.777602 21.331987-52.231046 1.939272-5.947099 9.567073-7.886371 15.384887-5.9471 5.947099 3.878543 7.886371 9.567073 5.947099 15.384888-5.947099 17.453444-13.445616 34.777602-21.331986 52.231046-1.939272 3.878543-5.559245 5.947099-11.506345 5.947099-7.498517 0.129285-13.445616-7.757086-9.825642-15.384887z m75.890158-7.886371c3.878543-3.878543 7.627801-5.947099 15.384888-3.878543 7.627801 1.939272 11.506344 7.498517 11.506344 15.384887 0 5.559245-1.939272 7.498517-5.947099 11.506344L803.137551 539.11748c-13.445616 15.384887-28.830503 30.899059-44.344675 46.283947-1.939272 1.939272-5.559245 3.878543-11.506344 3.878543-11.506344-1.939272-17.453444-11.764914-13.445616-21.331987 0-1.939272 1.939272-3.619973 3.878543-5.559245 56.238874-56.109589 61.798119-63.608106 118.036992-119.846979z m-141.30825 106.401363c-1.939272 3.878543-7.498517 5.947099-11.506345 5.9471-1.939272 0-5.947099 0-7.88637-1.939272-7.886371-5.947099-7.886371-13.445616-3.878543-21.331987 30.899059-42.405404 40.724702-75.243735 19.392715-129.414052-3.619973-7.886371 0-15.384887 7.886371-19.392715 7.498517-3.878543 17.453444 0 19.392715 7.886371 26.891232 65.676662 11.506344 110.021337-23.400543 158.244555zM652.779367 311.576289c1.939272-3.878543 5.559245-5.947099 11.506344-5.947099 3.878543 0 9.567073 0 15.384887 3.878543 7.498517 1.939272 11.506344 0 15.384888-5.947099 3.619973-1.680702 5.559245-5.559245 9.567072-9.567073 1.939272-3.878543 5.559245-5.947099 11.506345-3.878543 5.947099 1.939272 5.947099 5.559245 5.947099 11.506344 0 3.878543-1.939272 9.567073-1.939272 13.445616-1.939272 5.559245 1.939272 9.567073 5.9471 13.445616 3.619973 3.619973 7.627801 5.559245 11.506344 9.567073 3.878543 3.619973 3.878543 7.498517 1.939272 11.506344-1.680702 3.878543-5.559245 5.947099-9.567073 5.947099-5.947099 0-11.506344-1.939272-17.453444-1.939271-3.619973-1.939272-7.498517 0-11.506344 3.878543l-11.506344 11.506344c-3.619973 3.878543-7.627801 5.947099-11.506345 3.878543-5.947099-1.939272-5.947099-5.559245-5.947099-11.506344 0-5.947099 1.939272-9.825642 1.939272-15.384888 0-5.559245-1.939272-9.567073-5.9471-13.445615-3.878543-3.878543-7.886371-5.947099-11.506344-9.567073-3.749258-3.490689-5.68853-7.498517-3.749258-11.37706z m5.947099 138.851841c3.619973 11.506344 7.627801 21.331987 11.506344 32.83833 1.680702 7.886371-1.939272 15.384887-7.886371 17.453444-5.947099 3.619973-11.506344 0-15.384887-7.886371-3.619973-11.506344-7.627801-21.331987-11.506344-32.838331-1.939272-7.886371 3.878543-15.384887 11.764914-17.453443 5.559245 0 9.567073 2.068556 11.506344 7.886371z m-29.218357-50.16249c5.559245 0 11.506344 7.498517 11.506344 13.445616 0 5.559245-5.559245 11.506344-11.506344 11.506344-7.627801 0-11.506344-5.947099-13.445616-13.445616-0.129285-5.68853 7.757086-11.506344 13.445616-11.506344z m168.458051 295.544978c-1.939272 7.627801-5.559245 13.445616-11.506344 15.384887l-264.645919 110.021337c-7.886371 3.878543-15.384887 1.939272-21.331986-3.878543-5.947099-5.947099-7.886371-13.445616-3.878543-21.331986l109.892052-262.835932c3.878543-5.559245 9.567073-9.567073 15.384887-11.506345 5.947099 0 13.445616 1.939272 17.453444 5.9471 0 0 152.426741 150.746039 152.68531 150.746038 5.947099 4.007828 7.886371 11.506344 5.947099 17.453444z m61.668834-15.772742l-34.777602-11.506344c-7.886371-1.939272-9.825642-7.498517-7.886371-15.384887 1.939272-5.947099 7.498517-9.825642 15.384888-7.886371 7.886371 1.939272 13.445616 5.947099 21.331986 7.886371 3.878543 1.939272 9.567073 3.878543 13.445616 5.947099 5.559245 1.939272 7.627801 5.559245 7.886371 11.506344 0.129285 5.42996-7.498517 11.37706-15.384888 9.437788z m47.964649 21.331987c-5.559245-1.939272-11.506344-7.627801-11.506344-13.445616 0-5.559245 7.498517-11.506344 13.445616-11.506344 5.947099 0 11.506344 5.559245 11.506344 13.445616 0 5.559245-7.498517 11.506344-13.445616 11.506344z m31.157629-94.63645c-1.939272 7.886371-11.506344 11.764914-19.392715 7.886371-54.170318-23.012689-87.008648-11.506344-129.414052 19.392715-1.939272 1.939272-4.266397 1.939272-7.886371 1.939272s-7.498517-1.939272-11.506344-5.9471c-3.878543-7.886371-3.878543-17.453444 4.007828-21.331986 48.223218-34.777602 92.567893-50.291775 158.244555-23.271258 7.627801 2.068556 11.635629 11.894199 5.947099 21.331986z m94.248596 15.772742c-3.878543 3.619973-9.567073 5.559245-13.445616 9.567073-3.878543 3.619973-5.947099 5.559245-5.9471 11.506344v17.453444c0 5.559245-3.878543 7.498517-7.88637 9.567072-5.559245 0-9.567073 0-11.506345-3.878543-3.619973-5.559245-5.559245-9.567073-9.567072-13.445615-3.878543-3.878543-7.498517-5.947099-13.445616-5.9471h-13.445616c-5.559245 0-9.567073 0-11.506344-5.947099-1.939272-5.559245 1.939272-9.567073 5.947099-13.445616 3.619973-1.939272 7.498517-5.947099 11.506344-7.886371 3.878543-3.878543 5.947099-7.498517 5.9471-13.445615v-13.445616c0-5.559245 0-9.567073 5.947099-11.506345 3.619973-1.939272 7.498517 1.939272 11.506344 5.9471 1.939272 3.619973 5.947099 7.498517 7.886371 11.506344 3.878543 3.878543 7.498517 5.947099 13.445616 5.947099h15.384887c3.619973 0 7.627801 1.939272 9.567073 5.9471 1.939272 3.361404 0 7.239947-0.387854 11.506344zM392.011991 124.501231c0-31.933338-25.856953-57.790291-57.919576-57.790291-31.933338 0-57.919576 25.856953-57.919576 57.790291 0 31.933338 25.856953 57.919576 57.919576 57.919576 32.062622-0.129285 57.919576-25.986238 57.919576-57.919576z m-89.982198 0c0-17.712013 14.350609-32.191907 32.191907-32.191907 17.712013 0 32.191907 14.350609 32.191907 32.191907 0 17.712013-14.350609 32.191907-32.191907 32.191907-17.841298 0-32.191907-14.479894-32.191907-32.191907zM83.409251 767.305094v-44.991099h44.991099c7.110662 0 12.799192-5.68853 12.799192-12.799192s-5.817815-12.799192-12.799192-12.799192h-44.991099V651.595228c0-7.110662-5.817815-12.799192-12.799192-12.799192-7.110662 0-12.799192 5.68853-12.799192 12.799192v44.991099h-44.991099c-7.110662 0-12.799192 5.817815-12.799192 12.799192 0 3.361404 1.292848 6.722808 3.749258 9.049933 2.456411 2.456411 5.68853 3.749258 9.049934 3.749259h44.991099v44.991099c0 7.110662 5.817815 12.799192 12.799192 12.799192 7.110662 0.25857 12.799192-5.559245 12.799192-12.669908zM134.864589 828.456789c-21.849126 0-42.017549 11.635629-52.87747 30.511205-10.85992 18.875576-10.85992 42.146834 0 61.022411 10.85992 18.875576 31.028344 30.511205 52.87747 30.511205 33.743324 0 61.02241-27.408371 61.02241-61.02241 0-33.743324-27.279086-61.02241-61.02241-61.022411z m25.081244 75.502304c-5.171391 8.920649-14.738463 14.479894-25.081244 14.479894-16.031311 0-28.959788-12.928477-28.959788-28.959787 0-16.031311 12.928477-28.959788 28.959788-28.959788 10.342781 0 19.909854 5.559245 25.081244 14.479894 5.171391 8.920649 5.171391 20.039139 0 28.959787zM1311.355972 79.510132c0-7.110662-5.817815-12.799192-12.799192-12.799192h-51.455338V15.255603c0-7.110662-5.817815-12.799192-12.799192-12.799192-7.110662 0-12.799192 5.68853-12.799192 12.799192v51.455337h-51.455337c-7.110662 0-12.799192 5.817815-12.799192 12.799192 0 7.110662 5.817815 12.799192 12.799192 12.799192h51.455337v51.455337c0 7.110662 5.68853 12.799192 12.799192 12.799192s12.799192-5.817815 12.799192-12.799192V92.309324h51.455338c6.981377 0 12.799192-5.68853 12.799192-12.799192zM1362.682024 863.751531c-35.553311 0-64.254529 28.830503-64.254529 64.254529 0 35.553311 28.830503 64.254529 64.254529 64.25453 35.553311 0 64.254529-28.830503 64.25453-64.25453 0.129285-35.424026-28.701218-64.254529-64.25453-64.254529z m0 102.910675c-21.331987 0-38.526861-17.324159-38.52686-38.526861 0-21.331987 17.324159-38.526861 38.52686-38.526861 21.331987 0 38.526861 17.324159 38.526861 38.526861 0.129285 21.202702-17.194874 38.526861-38.526861 38.526861z" p-id="14260" fill="#1afa29"></path><path d="M590.981248 751.661638l5.68853-91.016477-44.344676 106.401364zM633.386652 581.781453l-11.506345 156.305284 34.906887-15.384887 9.437788-111.960609-32.83833-32.838331zM687.556969 709.256234l55.85102-21.331987-49.903921-50.291774z" p-id="14261" fill="#1afa29"></path></svg>