<?xml version="1.0" standalone="no"?><!DOCTYPE svg PUBLIC "-//W3C//DTD SVG 1.1//EN" "http://www.w3.org/Graphics/SVG/1.1/DTD/svg11.dtd"><svg t="1772005344780" class="icon" viewBox="0 0 1024 1024" version="1.1" xmlns="http://www.w3.org/2000/svg" p-id="21608" xmlns:xlink="http://www.w3.org/1999/xlink" width="200" height="200"><path d="M810.020534 895.378597H214.107379c-12.492522 0-23.25054-8.791224-25.747407-21.033035l-72.039733-353.286232a105.528452 105.528452 0 0 1-37.243229-8.747222c-12.957103-5.65479-24.569582-13.737886-34.526351-24.014949-9.906627-10.219759-17.677615-22.1116-23.094998-35.338857-5.600555-13.656021-8.43102-28.142967-8.43102-43.051515 0-14.912641 2.831488-29.39754 8.43102-43.053561 5.417383-13.229303 13.18837-25.124214 23.094998-35.343973 9.956769-10.277064 21.569248-18.36016 34.526351-24.01495 13.488199-5.889127 27.815509-8.875135 42.570561-8.875135s29.081339 2.991124 42.570561 8.875135c12.957103 5.659907 24.580838 13.739932 34.526351 24.01495 9.906627 10.219759 17.677615 22.11467 23.094998 35.343973 5.600555 13.656021 8.43102 28.14092 8.43102 43.053561 0 12.269441-1.964748 24.379247-5.778611 35.868929l132.557039 98.828866 89.48608-215.868489c-26.807552-20.733207-43.166125-53.420677-43.166125-88.830141 0-14.908548 2.833535-29.395494 8.43102-43.055609 5.41943-13.227256 13.190417-25.119097 23.097044-35.336809 9.956769-10.279111 21.569248-18.36016 34.526351-24.01802 13.499455-5.89322 27.815509-8.873088 42.570561-8.873088 14.753005 0 29.082362 2.983961 42.568515 8.873088 12.957103 5.659907 24.582885 13.737886 34.539654 24.01802 9.892301 10.217712 17.664312 22.109554 23.082718 35.336809 5.597485 13.660114 8.445346 28.14706 8.445346 43.055609 0 35.351136-16.33299 68.00586-43.074028 88.74623l89.521896 215.9524 132.443451-98.753141a113.930819 113.930819 0 0 1-5.806239-35.948747c0-14.908548 2.830465-29.393447 8.43102-43.053562 5.41943-13.227256 13.190417-25.124214 23.094997-35.338856 9.956769-10.282181 21.569248-18.36016 34.526352-24.01495 13.502525-5.89322 27.815509-8.875135 42.570561-8.875134 14.768355 0 29.084409 2.987031 42.570561 8.875134 12.957103 5.65479 24.582885 13.737886 34.539654 24.01495 9.906627 10.215666 17.664312 22.1116 23.094998 35.338856 5.586229 13.660114 8.43102 28.145014 8.431019 43.053562 0 14.910595-2.844791 29.395494-8.431019 43.051515-5.430686 13.232372-13.201673 25.124214-23.094998 35.343973-9.956769 10.277064-21.582551 18.36016-34.539654 24.012903-11.819187 5.158487-24.2718 8.096399-37.10099 8.740058L835.768965 874.343515c-2.496867 12.239765-13.268188 21.030989-25.758664 21.030989l0.010233 0.004093z m-574.432934-52.570309h552.96704l72.325235-354.708628c2.883677-14.179954 16.695241-23.360034 30.893615-20.529569a54.008055 54.008055 0 0 0 10.576892 1.046843c30.90487 0 56.056714-26.337855 56.056714-58.715263 0-32.375362-25.151843-58.713216-56.056714-58.713217-30.919197 0-56.056714 26.337855-56.056713 58.713217 0 10.996448 2.90926 21.708418 8.43102 30.985711 6.878664 11.5695 3.916193 26.468838-6.880711 34.515095L671.436222 606.934163a26.315342 26.315342 0 0 1-22.695908 4.27128 26.291806 26.291806 0 0 1-17.302061-15.274892L520.385994 328.013639c-5.458315-13.151531 0.554632-28.259624 13.550621-34.063817 20.73116-9.255805 34.113959-30.472012 34.113959-54.042847 0-32.373315-25.137517-58.71117-56.056714-58.71117-30.906917 0-56.05876 26.337855-56.05876 58.71117 0 23.611767 13.424754 44.838208 34.19173 54.075593 13.021571 5.794983 19.047822 20.914332 13.589506 34.084283L392.675334 595.929528a26.307156 26.307156 0 0 1-17.302061 15.280008c-7.822153 2.148943-16.188704 0.573051-22.693862-4.27128l-176.499853-131.60434c-10.785647-8.037047-13.758352-22.925129-6.891967-34.489513 5.508457-9.265014 8.40646-19.961634 8.40646-30.937616 0-32.373315-25.139563-58.715263-56.045457-58.715263-30.919197 0-56.056714 26.337855-56.056713 58.715263 0 32.373315 25.137517 58.71117 56.056713 58.71117a54.419424 54.419424 0 0 0 10.654664-1.058099c14.198374-2.858094 28.048823 6.316869 30.9325 20.518313l72.336492 354.73114h0.01535v-0.001023z" fill="" p-id="21609"></path></svg>